<?xml version="1.0" encoding="utf-8"?>
<!-- Generator: Adobe Illustrator 16.0.0, SVG Export Plug-In . SVG Version: 6.00 Build 0)  -->
<!DOCTYPE svg PUBLIC "-//W3C//DTD SVG 1.1//EN" "http://www.w3.org/Graphics/SVG/1.1/DTD/svg11.dtd">
<svg version="1.1" id="레이어_1" xmlns="http://www.w3.org/2000/svg" xmlns:xlink="http://www.w3.org/1999/xlink" x="0px"
	 y="0px" width="37.5px" height="30.625px" viewBox="0 0 37.5 30.625" enable-background="new 0 0 37.5 30.625"
	 xml:space="preserve">
<g>
	<path fill="#39393B" d="M3.627,21.849c0,0.427,0.333,0.594,0.711,0.594c0.247,0,0.625-0.072,0.625-0.4
		c0-0.351-0.486-0.4-0.954-0.531c-0.477-0.117-0.958-0.32-0.958-0.914c0-0.661,0.621-0.972,1.201-0.972
		c0.671,0,1.287,0.292,1.287,1.035H4.854c-0.021-0.382-0.292-0.486-0.634-0.486c-0.225,0-0.486,0.095-0.486,0.365
		c0,0.247,0.153,0.283,0.959,0.485c0.238,0.054,0.954,0.211,0.954,0.936c0,0.589-0.46,1.031-1.337,1.031
		c-0.711,0-1.381-0.352-1.367-1.143H3.627z"/>
	<path fill="#39393B" d="M6.655,20.229H6.017v-0.526h0.639V20.229z M6.017,20.589h0.639v2.326H6.017V20.589z"/>
	<path fill="#39393B" d="M7.177,19.703h0.64v3.212h-0.64V19.703z"/>
	<path fill="#39393B" d="M8.379,19.703h0.639v1.723l0.806-0.837h0.756l-0.878,0.855l0.977,1.471H9.903l-0.639-1.04l-0.247,0.239
		v0.801H8.379V19.703z"/>
	<path fill="#39393B" d="M11.022,19.703h1.732c0.576,0,0.94,0.4,0.94,0.886c0,0.378-0.148,0.661-0.509,0.805v0.009
		c0.347,0.094,0.446,0.423,0.469,0.751c0.013,0.202,0.004,0.584,0.135,0.76h-0.707c-0.08-0.203-0.076-0.513-0.112-0.77
		c-0.049-0.337-0.18-0.486-0.535-0.486h-0.706v1.255h-0.707V19.703z M11.729,21.156h0.773c0.32,0,0.486-0.135,0.486-0.459
		c0-0.311-0.166-0.445-0.486-0.445h-0.773V21.156z"/>
	<path fill="#39393B" d="M15.333,20.526c0.733,0,1.206,0.486,1.206,1.228c0,0.738-0.473,1.224-1.206,1.224
		c-0.729,0-1.201-0.486-1.201-1.224C14.132,21.012,14.604,20.526,15.333,20.526z M15.333,22.496c0.437,0,0.567-0.369,0.567-0.742
		s-0.131-0.747-0.567-0.747c-0.432,0-0.563,0.373-0.563,0.747S14.901,22.496,15.333,22.496z"/>
	<path fill="#39393B" d="M16.926,21.304c0.036-0.594,0.572-0.778,1.094-0.778c0.463,0,1.021,0.104,1.021,0.661v1.21
		c0,0.211,0.021,0.423,0.08,0.518h-0.647c-0.022-0.072-0.04-0.148-0.045-0.225c-0.202,0.211-0.494,0.288-0.782,0.288
		c-0.446,0-0.793-0.221-0.793-0.697c0.01-1.058,1.575-0.491,1.549-1.013c0-0.27-0.189-0.315-0.415-0.315
		c-0.247,0-0.399,0.099-0.423,0.351H16.926z M18.402,21.777c-0.108,0.094-0.333,0.099-0.531,0.135s-0.378,0.108-0.378,0.342
		s0.185,0.297,0.391,0.297c0.5,0,0.519-0.391,0.519-0.535V21.777z"/>
	<path fill="#39393B" d="M21.195,22.618h-0.009c-0.148,0.252-0.405,0.36-0.706,0.36c-0.701,0-1.044-0.598-1.044-1.247
		c0-0.625,0.347-1.206,1.03-1.206c0.274,0,0.544,0.117,0.688,0.347h0.009v-1.17h0.64v3.212h-0.608V22.618z M20.638,21.007
		c-0.418,0-0.563,0.364-0.563,0.742c0,0.365,0.167,0.747,0.563,0.747c0.418,0,0.549-0.369,0.549-0.751
		C21.187,21.367,21.052,21.007,20.638,21.007z"/>
	<path fill="#39393B" d="M26.365,21.34v1.575h-0.17v-0.684h-0.01c-0.157,0.468-0.647,0.761-1.214,0.761
		c-0.973,0-1.513-0.743-1.513-1.665c0-0.914,0.55-1.701,1.517-1.701c0.662,0,1.228,0.4,1.336,1.071h-0.188
		c-0.148-0.558-0.554-0.9-1.144-0.9c-0.863,0-1.322,0.725-1.322,1.53c0,0.814,0.441,1.494,1.322,1.494
		c0.765,0,1.251-0.522,1.216-1.309h-1.185V21.34H26.365z"/>
	<path fill="#39393B" d="M27.09,19.703v3.212h-0.171v-3.212H27.09z"/>
	<path fill="#39393B" d="M28.589,20.548c0.684,0,1.062,0.553,1.062,1.21c0,0.661-0.378,1.21-1.062,1.21s-1.063-0.549-1.063-1.21
		C27.526,21.102,27.905,20.548,28.589,20.548z M28.589,22.82c0.576,0,0.891-0.508,0.891-1.062c0-0.554-0.314-1.062-0.891-1.062
		s-0.892,0.508-0.892,1.062C27.697,22.312,28.013,22.82,28.589,22.82z"/>
	<path fill="#39393B" d="M30.092,19.703h0.171v1.39h0.009c0.13-0.359,0.5-0.544,0.878-0.544c0.679,0,1.003,0.513,1.003,1.156
		c0,1.102-0.684,1.265-1.003,1.265c-0.607,0-0.842-0.45-0.878-0.572h-0.009v0.518h-0.171V19.703z M31.981,21.705
		c0-0.513-0.278-1.008-0.832-1.008c-0.599,0-0.883,0.432-0.883,1.008c0,0.567,0.253,1.116,0.883,1.116
		C31.756,22.82,31.981,22.236,31.981,21.705z"/>
	<path fill="#39393B" d="M34.259,22.487c0,0.13-0.005,0.279,0.152,0.279c0.031,0,0.072-0.005,0.126-0.014v0.144
		c-0.05,0.014-0.09,0.019-0.14,0.019c-0.27,0-0.31-0.148-0.31-0.337v-0.122h-0.01c-0.107,0.274-0.413,0.513-0.859,0.513
		c-0.437,0-0.773-0.167-0.773-0.653c0-0.544,0.468-0.648,0.85-0.684c0.766-0.05,0.797-0.108,0.797-0.481
		c0-0.104-0.117-0.455-0.644-0.455c-0.414,0-0.688,0.216-0.711,0.616h-0.171c0.022-0.508,0.338-0.765,0.882-0.765
		c0.405,0,0.811,0.121,0.811,0.603V22.487z M34.088,21.601c-0.131,0.158-0.505,0.13-0.838,0.18
		c-0.409,0.049-0.634,0.189-0.634,0.535c0,0.284,0.198,0.504,0.607,0.504c0.778,0,0.864-0.666,0.864-0.787V21.601z"/>
	<path fill="#39393B" d="M35.015,19.703v3.212h-0.171v-3.212H35.015z"/>
	<g>
		<g>
			<path fill="#37393B" d="M18.962,25.84c0,0.096-0.01,0.183-0.03,0.261c-0.02,0.079-0.048,0.149-0.085,0.211l0.233,0.277h-0.267
				l-0.103-0.12c-0.054,0.044-0.115,0.078-0.182,0.101c-0.068,0.023-0.141,0.036-0.219,0.036c-0.075,0-0.142-0.011-0.199-0.03
				c-0.057-0.021-0.106-0.048-0.146-0.083c-0.038-0.036-0.068-0.078-0.09-0.126c-0.02-0.05-0.03-0.104-0.03-0.163
				c0-0.056,0.008-0.105,0.023-0.149c0.015-0.044,0.036-0.083,0.063-0.116c0.026-0.035,0.056-0.064,0.09-0.09
				c0.034-0.026,0.071-0.05,0.108-0.072l-0.025-0.034c-0.043-0.051-0.076-0.103-0.097-0.154c-0.021-0.052-0.031-0.103-0.031-0.152
				c0-0.053,0.009-0.102,0.027-0.147c0.017-0.044,0.043-0.083,0.077-0.115c0.034-0.033,0.077-0.059,0.127-0.076
				c0.051-0.02,0.107-0.028,0.173-0.028c0.062,0,0.117,0.008,0.163,0.025c0.048,0.017,0.086,0.04,0.117,0.069
				c0.032,0.03,0.057,0.063,0.071,0.102c0.017,0.038,0.024,0.08,0.024,0.122c0,0.055-0.01,0.104-0.029,0.145
				c-0.021,0.042-0.046,0.078-0.078,0.11c-0.031,0.032-0.068,0.061-0.108,0.086c-0.042,0.023-0.084,0.048-0.127,0.072l0.297,0.354
				c0.034-0.086,0.05-0.191,0.048-0.313H18.962z M18.055,26.179c0,0.04,0.007,0.076,0.021,0.107c0.013,0.032,0.031,0.06,0.056,0.083
				c0.024,0.022,0.054,0.042,0.089,0.053c0.034,0.012,0.074,0.019,0.118,0.019c0.1,0,0.188-0.035,0.263-0.104l-0.367-0.438
				c-0.025,0.017-0.05,0.035-0.071,0.054s-0.041,0.041-0.058,0.063c-0.015,0.023-0.027,0.047-0.036,0.075
				S18.055,26.147,18.055,26.179z M18.554,25.406c0-0.055-0.017-0.098-0.049-0.129c-0.031-0.031-0.076-0.047-0.132-0.047
				c-0.03,0-0.058,0.005-0.081,0.015c-0.023,0.01-0.043,0.023-0.059,0.04c-0.017,0.017-0.029,0.037-0.038,0.06
				c-0.007,0.022-0.011,0.047-0.011,0.073c0,0.04,0.008,0.077,0.022,0.111c0.016,0.034,0.04,0.072,0.074,0.113l0.031,0.039
				c0.032-0.019,0.063-0.036,0.093-0.054c0.029-0.018,0.056-0.038,0.077-0.06c0.022-0.021,0.04-0.045,0.052-0.072
				C18.547,25.469,18.554,25.439,18.554,25.406z"/>
		</g>
		<path fill="#37393B" d="M7.458,26.593L6.913,25.09h0.253l0.407,1.194l0.443-1.194H8.17l0.428,1.194l0.411-1.194h0.225
			l-0.545,1.503H8.503l-0.417-1.136l-0.431,1.136H7.458z"/>
		<path fill="#37393B" d="M9.695,25.445c0-0.137,0.024-0.23,0.073-0.28s0.142-0.075,0.279-0.075h1.039
			c0.136,0,0.228,0.024,0.276,0.074c0.049,0.05,0.073,0.144,0.073,0.281v0.792c0,0.139-0.024,0.232-0.073,0.282
			s-0.141,0.074-0.276,0.074h-1.039c-0.138,0-0.23-0.025-0.279-0.076s-0.073-0.144-0.073-0.28V25.445z M9.945,26.383h1.244v-1.089
			H9.945V26.383z"/>
		<path fill="#37393B" d="M12.198,26.593V25.09h1.212c0.112,0,0.194,0.023,0.243,0.069c0.051,0.046,0.075,0.12,0.075,0.223v0.335
			c0,0.102-0.024,0.175-0.075,0.221c-0.049,0.046-0.131,0.069-0.243,0.069h-0.221l0.687,0.586h-0.372l-0.611-0.586H12.45v0.586
			H12.198z M13.312,25.285H12.45v0.527h0.861c0.063,0,0.105-0.011,0.128-0.034s0.034-0.063,0.034-0.12v-0.219
			c0-0.057-0.012-0.097-0.035-0.12C13.416,25.296,13.373,25.285,13.312,25.285z"/>
		<path fill="#37393B" d="M14.418,26.593V25.09h0.252v0.644l0.937-0.644h0.367l-1.09,0.719l1.209,0.784h-0.419l-1.004-0.676v0.676
			H14.418z"/>
		<path fill="#37393B" d="M22.248,25.294h-1.063v0.419h0.946c0.134,0,0.226,0.025,0.274,0.074c0.05,0.049,0.074,0.143,0.074,0.28
			v0.169c0,0.139-0.024,0.232-0.072,0.282c-0.049,0.049-0.141,0.074-0.276,0.074h-0.877c-0.137,0-0.229-0.025-0.278-0.075
			c-0.05-0.05-0.074-0.143-0.074-0.281v-0.041l0.233-0.054v0.242h1.118v-0.452h-0.943c-0.137,0-0.229-0.025-0.277-0.074
			c-0.049-0.05-0.073-0.144-0.073-0.281v-0.13c0-0.137,0.024-0.231,0.073-0.281c0.048-0.05,0.141-0.074,0.277-0.074h0.8
			c0.134,0,0.227,0.024,0.277,0.073c0.051,0.049,0.075,0.134,0.075,0.256v0.031l-0.215,0.062V25.294z"/>
		<path fill="#37393B" d="M23.822,25.294v1.298h-0.251v-1.298h-0.686V25.09h1.626v0.205H23.822z"/>
		<path fill="#37393B" d="M25.186,25.09v1.293h1.095V25.09h0.247v1.147c0,0.139-0.024,0.232-0.073,0.282s-0.141,0.074-0.276,0.074
			h-0.892c-0.136,0-0.229-0.025-0.277-0.076c-0.051-0.05-0.074-0.144-0.074-0.28V25.09H25.186z"/>
		<path fill="#37393B" d="M28.137,25.09c0.139,0,0.254,0.009,0.345,0.028c0.092,0.018,0.169,0.048,0.232,0.089
			c0.097,0.063,0.173,0.15,0.229,0.261c0.055,0.111,0.083,0.232,0.083,0.364c0,0.14-0.027,0.266-0.082,0.378
			c-0.055,0.113-0.131,0.201-0.229,0.265c-0.062,0.04-0.138,0.069-0.23,0.088c-0.092,0.019-0.207,0.029-0.347,0.029H27.31V25.09
			H28.137z M28.102,25.294h-0.541v1.089h0.541c0.244,0,0.415-0.042,0.516-0.128c0.101-0.085,0.15-0.226,0.15-0.423
			c0-0.191-0.051-0.328-0.153-0.412C28.512,25.336,28.341,25.294,28.102,25.294z"/>
		<path fill="#37393B" d="M30.039,26.593v-0.656l-0.762-0.847h0.311l0.588,0.669l0.563-0.669h0.306l-0.754,0.841v0.662H30.039z"/>
	</g>
</g>
<path fill="#3A3A3B" d="M10.307,16.386l-3.954,0.917h5.693v-1.081c0.11-3.604,2.806-6.489,6.116-6.489V7.83
	C13.844,7.83,10.342,11.654,10.307,16.386z"/>
<path fill="#3A3A3B" d="M31.607,17.083l-3.883-0.9c-0.016-4.485-3.519-8.13-7.892-8.273l-0.87-4.195v6.017h0.604v0.003
	c3.399,0,6.174,2.717,6.349,6.135v1.213H31.607z"/>
<path fill="#445BA8" d="M12.396,8.871l-3.52-2.372l2.259,3.75c-1.2,1.602-1.916,3.621-1.916,5.819c0,0,0.73-0.121,0.731-0.183
	c0.093-4.695,3.732-8.473,8.211-8.48V6.651C15.966,6.651,13.953,7.487,12.396,8.871z"/>
<path fill="#445BA8" d="M29.24,6.499l-3.52,2.372c-1.529-1.36-3.497-2.19-5.647-2.22c-0.041,0-0.016,0.754,0.037,0.756
	c4.406,0.094,7.964,3.839,8.055,8.478c0.003,0.062,0.731,0.183,0.731,0.183c0-2.199-0.718-4.218-1.916-5.821L29.24,6.499z"/>
<polygon fill="#445BA8" points="19.016,11.312 19.016,15.67 16.038,17.158 "/>
<polygon fill="#373739" points="19.016,11.312 19.016,15.67 21.992,17.158 "/>
</svg>
