<?xml version="1.0" encoding="UTF-8"?>
<!DOCTYPE svg PUBLIC "-//W3C//DTD SVG 1.1//EN" "http://www.w3.org/Graphics/SVG/1.1/DTD/svg11.dtd">
<!-- Creator: CorelDRAW 2019 (64-Bit Оценочная версия) -->
<svg xmlns="http://www.w3.org/2000/svg" xml:space="preserve" width="11.2888mm" height="7.761mm" version="1.1" style="shape-rendering:geometricPrecision; text-rendering:geometricPrecision; image-rendering:optimizeQuality; fill-rule:evenodd; clip-rule:evenodd"
viewBox="0 0 1128.88 776.1"
 xmlns:xlink="http://www.w3.org/1999/xlink"
 xmlns:xodm="http://www.corel.com/coreldraw/odm/2003">
 <defs>
  <style type="text/css">
   <![CDATA[
    .fil0 {fill:#FEFEFE;fill-rule:nonzero}
    .fil2 {fill:#546BB1;fill-rule:nonzero}
    .fil1 {fill:url(#id0);fill-rule:nonzero}
   ]]>
  </style>
  <linearGradient id="id0" gradientUnits="userSpaceOnUse" x1="-7.6" y1="454" x2="-16.86" y2="510.88">
   <stop offset="0" style="stop-opacity:1; stop-color:#FEFEFE"/>
   <stop offset="1" style="stop-opacity:1; stop-color:#FEFEFE"/>
  </linearGradient>
 </defs>
 <g id="Слой_x0020_1">
  <metadata id="CorelCorpID_0Corel-Layer"/>
  <path class="fil0" d="M24.11 608.27c0,15.08 11.74,20.95 25.08,20.95 8.71,0 22.05,-2.52 22.05,-14.12 0,-12.37 -17.16,-14.13 -33.65,-18.72 -16.83,-4.13 -33.81,-11.28 -33.81,-32.23 0,-23.33 21.92,-34.29 42.38,-34.29 23.66,0 45.41,10.32 45.41,36.51l-24.16 0c-0.75,-13.49 -10.3,-17.15 -22.35,-17.15 -7.93,0 -17.16,3.35 -17.16,12.88 0,8.72 5.42,9.99 33.83,17.11 8.41,1.92 33.65,7.47 33.65,33.03 0,20.78 -16.22,36.36 -47.15,36.36 -24.69,0 -47.98,-12.01 -48.24,-39.03l0 -1.3 24.12 0z"/>
  <path class="fil0" d="M108.41 563.83l22.53 0 0 82.06 -22.53 0 0 -82.06zm22.53 -12.69l-22.53 0 0 -18.56 22.53 0 0 18.56z"/>
  <polygon class="fil0" points="149.35,645.89 171.91,645.89 171.91,532.58 149.35,532.58 "/>
  <polygon class="fil0" points="191.75,532.58 214.28,532.58 214.28,593.36 242.7,563.83 269.36,563.83 238.4,594 272.85,645.89 245.52,645.89 223,609.22 214.28,617.64 214.28,645.89 191.75,645.89 "/>
  <path class="fil0" d="M309.94 583.83l27.3 0c11.29,0 17.16,-4.76 17.16,-16.19 0,-10.95 -5.87,-15.71 -17.16,-15.71l-27.3 0 0 31.9zm-24.94 -51.25l61.12 0c20.34,0 33.18,14.12 33.18,31.25 0,13.34 -5.24,23.33 -17.94,28.42l0 0.31c12.22,3.33 15.74,14.93 16.52,26.52 0.46,7.14 0.14,20.61 4.77,26.81l-24.96 0c-2.81,-7.15 -2.67,-18.08 -3.95,-27.14 -1.72,-11.9 -6.34,-17.15 -18.88,-17.15l-24.92 0 0 44.29 -24.94 0 0 -113.31z"/>
  <path class="fil0" d="M437.07 631.12c15.4,0 20.02,-13.01 20.02,-26.18 0,-13.19 -4.62,-26.34 -20.02,-26.34 -15.23,0 -19.84,13.15 -19.84,26.34 0,13.17 4.61,26.18 19.84,26.18zm0 -69.51c25.88,0 42.55,17.15 42.55,43.33 0,26.04 -16.67,43.19 -42.55,43.19 -25.7,0 -42.36,-17.15 -42.36,-43.19 0,-26.18 16.66,-43.33 42.36,-43.33z"/>
  <path class="fil0" d="M545.35 605.75c-3.81,3.32 -11.74,3.47 -18.74,4.76 -6.98,1.26 -13.34,3.8 -13.34,12.05 0,8.24 6.52,10.46 13.78,10.46 17.64,0 18.3,-13.79 18.3,-18.86l0 -8.41zm-52.09 -16.69c1.29,-20.93 20.19,-27.45 38.59,-27.45 16.33,0 36.04,3.66 36.04,23.33l0 42.7c0,7.45 0.75,14.92 2.82,18.25l-22.83 0c-0.8,-2.55 -1.43,-5.23 -1.59,-7.93 -7.14,7.45 -17.45,10.17 -27.6,10.17 -15.75,0 -27.97,-7.79 -27.97,-24.62 0.34,-37.3 55.57,-17.3 54.63,-35.71 0,-9.53 -6.68,-11.11 -14.64,-11.11 -8.71,0 -14.09,3.5 -14.92,12.37l-22.53 0z"/>
  <path class="fil0" d="M624.2 578.6c-14.72,0 -19.84,12.85 -19.84,26.19 0,12.85 5.9,26.33 19.84,26.33 14.75,0 19.38,-13.01 19.38,-26.5 0,-13.32 -4.75,-26.02 -19.38,-26.02zm19.69 56.81l-0.31 0c-5.25,8.9 -14.3,12.72 -24.92,12.72 -24.73,0 -36.81,-21.11 -36.81,-43.99 0,-22.05 12.22,-42.53 36.33,-42.53 9.69,0 19.2,4.14 24.28,12.23l0.32 0 0 -41.26 22.57 0 0 113.31 -21.46 0 0 -10.48z"/>
  <path class="fil0" d="M826.27 590.35l0 55.54 -6 0 0 -24.13 -0.34 0c-5.54,16.51 -22.85,26.84 -42.83,26.84 -34.3,0 -53.36,-26.2 -53.36,-58.74 0,-32.23 19.39,-60 53.5,-60 23.35,0 43.31,14.13 47.14,37.78l-6.66 0c-5.23,-19.68 -19.52,-31.74 -40.35,-31.74 -30.44,0 -46.63,25.56 -46.63,53.96 0,28.74 15.57,52.7 46.63,52.7 26.99,0 44.14,-18.41 42.9,-46.18l-41.78 0 0 -6.03 47.78 0z"/>
  <polygon class="fil0" points="845.81,645.89 851.83,645.89 851.83,532.58 845.81,532.58 "/>
  <path class="fil0" d="M904.7 642.56c20.35,0 31.42,-17.93 31.42,-37.46 0,-19.52 -11.07,-37.46 -31.42,-37.46 -20.32,0 -31.44,17.94 -31.44,37.46 0,19.53 11.12,37.46 31.44,37.46zm0 -80.15c24.12,0 37.46,19.52 37.46,42.69 0,23.33 -13.34,42.71 -37.46,42.71 -24.11,0 -37.48,-19.38 -37.48,-42.71 0,-23.17 13.37,-42.69 37.48,-42.69z"/>
  <path class="fil0" d="M1024.4 603.19c0,-18.09 -9.82,-35.55 -29.35,-35.55 -21.13,0 -31.16,15.25 -31.16,35.55 0,20.01 8.93,39.37 31.16,39.37 21.39,0 29.35,-20.62 29.35,-39.37zm-66.67 -70.61l6.02 0 0 49.01 0.32 0c4.58,-12.67 17.64,-19.18 30.98,-19.18 23.94,0 35.37,18.08 35.37,40.78 0,38.89 -24.11,44.62 -35.37,44.62 -21.44,0 -29.7,-15.88 -30.98,-20.17l-0.32 0 0 18.25 -6.02 0 0 -113.31z"/>
  <path class="fil0" d="M1098.7 599.54c-4.61,5.56 -17.81,4.6 -29.56,6.36 -14.42,1.74 -22.35,6.67 -22.35,18.88 0,10.01 6.99,17.78 21.43,17.78 27.45,0 30.48,-23.48 30.48,-27.77l0 -15.25zm6.03 31.26c0,4.61 -0.17,9.86 5.39,9.86 1.08,0 2.53,-0.17 4.43,-0.48l0 5.07c-1.76,0.48 -3.17,0.64 -4.93,0.64 -9.49,0 -10.92,-5.23 -10.92,-11.89l0 -4.3 -0.34 0c-3.79,9.69 -14.56,18.11 -30.32,18.11 -15.39,0 -27.28,-5.87 -27.28,-23.03 0,-19.21 16.49,-22.86 29.97,-24.11 27.01,-1.77 28.11,-3.83 28.11,-16.99 0,-3.67 -4.13,-16.04 -22.69,-16.04 -14.63,0 -24.3,7.62 -25.1,21.74l-6.02 0c0.79,-17.93 11.92,-26.97 31.12,-26.97 14.29,0 28.58,4.27 28.58,21.27l0 47.12z"/>
  <polygon class="fil0" points="1125.37,645.89 1131.41,645.89 1131.41,532.58 1125.37,532.58 "/>
  <path class="fil0" d="M550.7 733.79c0,-1.96 -0.59,-3.46 -1.74,-4.57 -1.08,-1.1 -2.67,-1.68 -4.64,-1.68 -1.08,0 -2.02,0.2 -2.87,0.53 -0.81,0.34 -1.5,0.8 -2.06,1.4 -0.58,0.59 -1.04,1.3 -1.34,2.11 -0.25,0.77 -0.39,1.65 -0.39,2.56 0,1.42 0.28,2.73 0.8,3.92 0.55,1.18 1.41,2.55 2.62,3.98l1.1 1.36c1.15,-0.64 2.24,-1.26 3.27,-1.88 1.03,-0.64 1.97,-1.35 2.73,-2.1 0.78,-0.74 1.4,-1.61 1.82,-2.53 0.45,-0.9 0.7,-1.96 0.7,-3.1zm-17.61 27.25c0,1.41 0.25,2.68 0.71,3.78 0.46,1.14 1.12,2.12 1.98,2.95 0.85,0.78 1.88,1.46 3.14,1.87 1.2,0.43 2.62,0.66 4.16,0.66 3.51,0 6.64,-1.22 9.26,-3.69l-12.95 -15.46c-0.9,0.58 -1.75,1.23 -2.51,1.89 -0.76,0.67 -1.45,1.44 -2.04,2.23 -0.51,0.8 -0.95,1.67 -1.27,2.63 -0.32,0.97 -0.48,2.01 -0.48,3.14zm32.01 -11.94c0,3.39 -0.34,6.46 -1.07,9.21 -0.69,2.77 -1.7,5.27 -3.01,7.45l8.24 9.78 -9.41 0 -3.61 -4.24c-1.89,1.57 -4.07,2.75 -6.41,3.55 -2.41,0.8 -4.96,1.26 -7.71,1.26 -2.65,0 -4.99,-0.38 -7.03,-1.08 -2,-0.72 -3.77,-1.68 -5.13,-2.94 -1.35,-1.25 -2.42,-2.74 -3.18,-4.46 -0.68,-1.75 -1.06,-3.65 -1.06,-5.73 0,-1.99 0.27,-3.72 0.82,-5.27 0.51,-1.54 1.27,-2.9 2.21,-4.09 0.92,-1.24 1.96,-2.27 3.17,-3.18 1.2,-0.94 2.51,-1.78 3.81,-2.55l-0.89 -1.2c-1.5,-1.81 -2.67,-3.61 -3.4,-5.44 -0.73,-1.84 -1.11,-3.63 -1.11,-5.38 0,-1.87 0.32,-3.58 0.97,-5.18 0.58,-1.56 1.51,-2.92 2.73,-4.07 1.2,-1.14 2.71,-2.08 4.46,-2.68 1.79,-0.69 3.81,-0.98 6.11,-0.98 2.16,0 4.13,0.27 5.76,0.88 1.68,0.61 3.01,1.41 4.13,2.44 1.13,1.05 1.98,2.22 2.51,3.61 0.59,1.34 0.87,2.8 0.87,4.3 0,1.93 -0.36,3.65 -1.04,5.1 -0.73,1.49 -1.62,2.76 -2.75,3.87 -1.12,1.13 -2.41,2.16 -3.83,3.03 -1.48,0.83 -2.97,1.71 -4.48,2.54l10.47 12.48c1.21,-3.04 1.76,-6.75 1.68,-11.03l7.18 0z"/>
  <polygon class="fil1" points="159.27,775.64 140.04,722.62 148.96,722.62 163.32,764.74 178.96,722.62 184.38,722.62 199.47,764.74 213.98,722.62 221.9,722.62 202.68,775.64 196.12,775.64 181.41,735.56 166.21,775.64 "/>
  <path class="fil0" d="M247.01 768.25l43.89 0 0 -38.41 -43.89 0 0 38.41zm-8.82 -33.09c0,-4.82 0.87,-8.11 2.59,-9.89 1.71,-1.76 4.99,-2.65 9.84,-2.65l36.65 0c4.8,0 8.04,0.86 9.76,2.62 1.72,1.78 2.58,5.09 2.58,9.92l0 27.92c0,4.89 -0.86,8.2 -2.58,9.94 -1.72,1.73 -4.96,2.62 -9.76,2.62l-36.65 0c-4.85,0 -8.13,-0.9 -9.84,-2.68 -1.72,-1.76 -2.59,-5.05 -2.59,-9.88l0 -27.92z"/>
  <path class="fil0" d="M365.77 729.49l-30.39 0 0 18.61 30.39 0c2.23,0 3.7,-0.4 4.5,-1.21 0.8,-0.81 1.22,-2.2 1.22,-4.22l0 -7.71c0,-2.02 -0.42,-3.43 -1.26,-4.25 -0.78,-0.82 -2.3,-1.22 -4.46,-1.22zm-39.29 46.15l0 -53.02 42.76 0c3.96,0 6.85,0.8 8.59,2.43 1.77,1.61 2.64,4.24 2.64,7.85l0 11.84c0,3.58 -0.87,6.16 -2.64,7.79 -1.74,1.61 -4.63,2.44 -8.59,2.44l-7.79 0 24.22 20.67 -13.12 0 -21.57 -20.67 -15.6 0 0 20.67 -8.9 0z"/>
  <polygon class="fil0" points="404.79,775.64 404.79,722.62 413.68,722.62 413.68,745.33 446.73,722.62 459.68,722.62 421.22,747.99 463.87,775.64 449.1,775.64 413.68,751.8 413.68,775.64 "/>
  <path class="fil0" d="M681.02 729.84l-37.48 0 0 14.79 33.39 0c4.71,0 7.95,0.88 9.67,2.61 1.77,1.73 2.62,5.02 2.62,9.88l0 5.96c0,4.89 -0.85,8.2 -2.55,9.94 -1.72,1.73 -4.96,2.62 -9.74,2.62l-30.95 0c-4.83,0 -8.09,-0.89 -9.81,-2.65 -1.75,-1.76 -2.62,-5.04 -2.62,-9.91l0 -1.44 8.24 -1.92 0 8.53 39.44 0 0 -15.94 -33.28 0c-4.82,0 -8.09,-0.89 -9.79,-2.62 -1.72,-1.78 -2.59,-5.07 -2.59,-9.94l0 -4.59c0,-4.83 0.87,-8.14 2.59,-9.92 1.7,-1.76 4.97,-2.62 9.79,-2.62l28.22 0c4.71,0 8,0.84 9.77,2.58 1.79,1.72 2.66,4.74 2.66,9.05l0 1.09 -7.58 2.18 0 -7.68z"/>
  <polygon class="fil0" points="736.56,729.84 736.56,775.64 727.69,775.64 727.69,729.84 703.53,729.84 703.53,722.62 760.88,722.62 760.88,729.84 "/>
  <path class="fil0" d="M784.65 722.62l0 45.63 38.61 0 0 -45.63 8.73 0 0 40.46c0,4.89 -0.86,8.2 -2.6,9.94 -1.72,1.73 -4.96,2.62 -9.74,2.62l-31.44 0c-4.8,0 -8.06,-0.9 -9.8,-2.68 -1.79,-1.76 -2.62,-5.05 -2.62,-9.88l0 -40.46 8.86 0z"/>
  <path class="fil0" d="M887.52 729.84l-19.08 0 0 38.41 19.08 0c8.61,0 14.63,-1.5 18.19,-4.52 3.54,-2.99 5.31,-7.96 5.31,-14.92 0,-6.74 -1.8,-11.57 -5.41,-14.54 -3.62,-2.95 -9.64,-4.43 -18.09,-4.43zm1.24 -7.22c4.89,0 8.96,0.33 12.17,0.98 3.24,0.64 5.95,1.7 8.18,3.14 3.42,2.22 6.11,5.31 8.06,9.21 1.93,3.91 2.94,8.2 2.94,12.86 0,4.93 -0.96,9.38 -2.89,13.35 -1.93,3.97 -4.62,7.07 -8.11,9.34 -2.16,1.42 -4.85,2.46 -8.13,3.12 -3.24,0.67 -7.3,1.02 -12.22,1.02l-29.19 0 0 -53.02 29.19 0z"/>
  <polygon class="fil0" points="955.87,775.64 955.87,752.51 929,722.62 939.95,722.62 960.69,746.23 980.54,722.62 991.33,722.62 964.73,752.31 964.73,775.64 "/>
  <path class="fil0" d="M259.76 415.56l-139.49 32.35 200.85 0 0 -38.13c3.89,-127.15 98.97,-228.92 215.76,-228.92l0 -67.15c-152.34,0 -275.88,134.91 -277.12,301.85z"/>
  <path class="fil0" d="M1011.2 440.14l-136.98 -31.76c-0.55,-158.22 -124.12,-286.8 -278.4,-291.86l-30.69 -147.97 0 212.26 21.32 0 0 0.12c119.93,0 217.81,95.84 223.97,216.42l0 42.79 200.78 0z"/>
  <path class="fil2" d="M333.48 150.46l-124.16 -83.69 79.68 132.28c-42.34,56.5 -67.58,127.73 -67.58,205.29 0,0 25.77,-4.27 25.79,-6.44 3.28,-165.62 131.68,-298.91 289.67,-299.16l0 -26.59c-77.47,0 -148.48,29.48 -203.4,78.31z"/>
  <path class="fil2" d="M927.69 66.77l-124.16 83.69c-53.95,-47.97 -123.36,-77.25 -199.22,-78.31 -1.45,0 -0.55,26.59 1.31,26.66 155.42,3.34 280.94,135.44 284.15,299.09 0.09,2.17 25.79,6.44 25.79,6.44 0,-77.56 -25.31,-148.79 -67.59,-205.34l79.72 -132.23z"/>
  <polygon class="fil2" points="566.99,236.55 566.99,390.31 461.94,442.81 "/>
  <polygon class="fil0" points="566.99,236.55 566.99,390.31 671.99,442.81 "/>
 </g>
</svg>
